<?xml version="1.0" standalone="no"?>
<!DOCTYPE svg PUBLIC "-//W3C//DTD SVG 20010904//EN"
 "http://www.w3.org/TR/2001/REC-SVG-20010904/DTD/svg10.dtd">
<svg version="1.0" xmlns="http://www.w3.org/2000/svg"
 width="512.000000pt" height="512.000000pt" viewBox="0 0 512.000000 512.000000"
 preserveAspectRatio="xMidYMid meet">
<metadata>
Created by potrace 1.14, written by Peter Selinger 2001-2017
</metadata>
<g transform="translate(0.000000,512.000000) scale(0.100000,-0.100000)"
fill="#000000" stroke="none">
<path d="M1570 3755 l0 -85 138 6 137 7 -2 -989 c-3 -1033 -9 -1237 -38 -1295
-38 -76 -112 -119 -202 -119 l-33 0 0 -65 0 -65 989 0 988 0 6 88 c5 66 21
550 22 642 0 12 -14 15 -65 15 l-65 0 -6 -96 c-11 -162 -55 -276 -138 -359
-58 -58 -108 -85 -209 -112 -69 -18 -124 -21 -501 -29 -234 -5 -425 -8 -425
-6 -1 1 0 266 2 588 l3 587 87 7 c144 11 433 9 478 -3 105 -30 147 -90 165
-235 l12 -97 59 0 58 0 0 405 0 405 -81 0 -82 0 7 -92 c3 -51 9 -126 13 -165
l6 -73 -362 0 -361 0 0 388 c0 213 5 420 10 461 16 118 63 182 159 212 49 16
554 24 619 10 138 -29 232 -92 286 -191 37 -68 54 -135 62 -242 l7 -88 64 0
64 0 -5 68 c-3 37 -9 187 -12 335 l-6 267 -924 0 -924 0 0 -85z"/>
</g>
</svg>
